<?xml version="1.0" standalone="no"?>
<!DOCTYPE svg PUBLIC "-//W3C//DTD SVG 20010904//EN"
 "http://www.w3.org/TR/2001/REC-SVG-20010904/DTD/svg10.dtd">
<svg version="1.0" xmlns="http://www.w3.org/2000/svg"
 width="324.000000pt" height="324.000000pt" viewBox="0 0 324.000000 324.000000"
 preserveAspectRatio="xMidYMid meet">
<metadata>
Created by potrace 1.11, written by Peter Selinger 2001-2013
</metadata>
<g transform="translate(0.000000,324.000000) scale(0.100000,-0.100000)"
fill="#000000" stroke="none">
<path d="M1650 3220 c-88 -11 -115 -19 -139 -41 -13 -12 -35 -19 -60 -19 -22
0 -43 -4 -46 -10 -3 -5 -40 -10 -81 -10 -41 0 -82 -5 -92 -11 -13 -8 -31 -9
-58 -2 -32 7 -57 4 -134 -18 -52 -15 -108 -34 -125 -43 -16 -9 -37 -16 -45
-16 -8 0 -26 -9 -40 -20 -14 -11 -30 -20 -35 -20 -6 0 -25 -13 -43 -29 -17
-16 -60 -51 -94 -77 -35 -26 -76 -61 -92 -76 -17 -15 -41 -33 -55 -39 -26 -12
-71 -70 -71 -91 0 -21 -40 -75 -65 -86 -14 -6 -25 -16 -25 -22 0 -22 -71 -120
-87 -120 -13 0 -31 -35 -39 -76 -4 -22 -10 -41 -13 -44 -11 -9 -61 -120 -61
-136 0 -14 -43 -113 -85 -194 -7 -14 -19 -65 -25 -115 -11 -74 -11 -109 1
-200 8 -66 13 -172 11 -265 -3 -144 4 -203 28 -250 4 -9 11 -36 15 -60 9 -53
97 -206 124 -215 21 -6 71 -77 71 -99 0 -7 7 -16 15 -20 8 -3 15 -11 15 -17 0
-7 10 -26 23 -43 12 -17 38 -60 56 -96 68 -132 102 -176 163 -209 64 -35 113
-66 173 -109 22 -17 56 -38 75 -47 19 -10 46 -26 59 -36 13 -10 27 -16 32 -13
4 2 26 -7 48 -21 23 -16 62 -30 99 -35 33 -4 69 -13 80 -19 12 -6 30 -11 41
-11 11 0 35 -9 53 -19 18 -10 56 -22 83 -26 28 -4 64 -13 80 -20 17 -7 90 -15
161 -19 l131 -8 28 26 c33 31 55 35 208 40 86 3 124 8 142 20 13 9 37 16 53
16 15 0 43 11 62 25 18 13 52 32 76 41 24 9 46 26 52 39 12 25 71 59 123 70
17 4 33 13 36 20 2 8 20 19 39 25 19 6 34 16 34 21 0 5 14 9 32 9 25 0 41 10
75 45 23 25 51 45 63 45 12 0 20 7 20 17 0 9 10 33 23 52 58 89 83 129 99 162
10 20 27 45 37 56 10 10 40 57 67 104 26 46 60 100 76 119 17 21 28 46 28 66
0 38 18 93 38 117 10 11 15 34 13 64 -1 46 17 89 46 106 9 6 13 30 13 80 0 40
4 77 9 83 5 5 14 36 20 68 9 50 8 62 -4 76 -8 9 -15 35 -15 56 0 39 -28 113
-55 144 -7 9 -15 53 -17 105 -3 57 -11 101 -21 120 -10 17 -17 41 -17 55 0 14
-7 34 -15 44 -8 11 -15 37 -15 57 0 28 -5 39 -18 44 -11 3 -24 17 -30 30 -11
24 -42 35 -42 16 0 -10 -93 -61 -113 -61 -16 0 -67 23 -67 30 0 3 -21 5 -47 5
-45 -1 -49 -3 -68 -41 -28 -54 -53 -73 -98 -74 -34 0 -38 3 -53 39 -8 22 -21
42 -28 44 -20 8 -66 -4 -66 -18 0 -17 -64 -65 -88 -65 -31 0 -64 44 -69 94 -4
33 -11 47 -24 51 -11 4 -19 11 -19 16 0 14 -48 11 -57 -5 -4 -7 -31 -17 -60
-21 -45 -6 -53 -4 -62 14 -14 25 -14 88 -1 96 6 3 10 21 10 40 0 30 -4 35 -32
43 -18 5 -57 20 -87 33 l-53 24 5 44 c3 30 13 51 31 68 30 27 39 97 11 87 -8
-4 -27 -3 -41 0 -23 6 -26 11 -22 41 3 28 0 36 -15 41 -16 5 -18 12 -12 42 8
42 21 62 41 62 7 0 25 5 39 12 21 9 25 18 25 53 0 22 5 46 11 52 16 16 -21 78
-56 93 -16 6 -49 20 -71 31 -57 25 -78 27 -154 19z m-755 -2980 c3 -6 -1 -7
-9 -4 -18 7 -21 14 -7 14 6 0 13 -4 16 -10z"/>
</g>
</svg>
